<svg xmlns="http://www.w3.org/2000/svg" version="1.1" xmlns:xlink="http://www.w3.org/1999/xlink" width="200" height="200"><svg id="SvgjsSvg1100" xmlns="http://www.w3.org/2000/svg" width="200" height="200" version="1.1" viewBox="0 0 200 200">
  <!-- Generator: Adobe Illustrator 29.8.1, SVG Export Plug-In . SVG Version: 2.1.1 Build 2)  -->
  <defs>
    <style>
      .st0 {
        fill: #ef781a;
      }
    </style>
  </defs>
  <path class="st0" d="M164.803,68.516c-4.138,0-7.493,3.355-7.493,7.493v37.316c0,32.313-26.881,58.486-59.483,57.282-31.025-1.146-55.136-27.614-55.136-58.661v-28.444h32.548c2.719,0,5.372-1.304,6.746-3.651,1.886-3.222,1.156-7.131-1.455-9.458l-15.309-13.642,24.777-2.473.325-.749,9.666-22.055,9.691,22.055.325.749,24.777,2.473-13.213,11.764-5.37,4.796,2.223,10.191,3.072,14.137-21.505-12.564-25.51,15.057c-3.573,2.09-4.776,6.681-2.686,10.254,2.091,3.575,6.686,4.777,10.259,2.683l17.937-10.635,16.735,9.791c2.173,1.249,4.521,1.873,6.869,1.873,2.797,0,5.57-.874,7.968-2.623,4.421-3.222,6.444-8.517,5.27-13.862l-3.072-14.112-1.049-4.821,11.415-10.166,3.047-2.722c3.547-3.172,5.12-7.718,4.371-12.264-.1-.699-.275-1.374-.5-2.073-1.673-5.195-6.119-8.767-11.539-9.291l-19.282-1.923-7.793-17.734c-2.198-5.02-6.969-8.118-12.414-8.143h-.025c-5.445,0-10.216,3.122-12.414,8.143l-7.793,17.734-19.282,1.923c-5.42.525-9.866,4.096-11.539,9.291-.225.699-.4,1.374-.5,2.073-.749,4.546.824,9.092,4.371,12.264l3.047,2.722h-28.174v43.301c0,39.354,30.817,72.651,70.155,73.786,40.857,1.179,74.437-31.708,74.437-72.278v-37.316c0-4.138-3.355-7.493-7.493-7.493h0s-.002.002-.002.002Z"></path>
</svg><style>@media (prefers-color-scheme: light) { :root { filter: none; } }
@media (prefers-color-scheme: dark) { :root { filter: none; } }
</style></svg>